<svg width="49" height="49" viewBox="0 0 49 49" fill="none" xmlns="http://www.w3.org/2000/svg">
<mask id="mask0_440_98" style="mask-type:alpha" maskUnits="userSpaceOnUse" x="0" y="0" width="49" height="49">
<rect x="48.803" y="48.8027" width="48" height="48" transform="rotate(-180 48.803 48.8027)" fill="#FF0004"/>
</mask>
<g mask="url(#mask0_440_98)">
<path d="M24.803 19.1027L17.503 26.4527L32.153 26.4527L24.803 19.1027ZM24.803 4.80274C27.5363 4.80274 30.1196 5.32774 32.553 6.37774C34.9863 7.42774 37.1113 8.86107 38.928 10.6777C40.7446 12.4944 42.178 14.6194 43.228 17.0527C44.278 19.4861 44.803 22.0694 44.803 24.8027C44.803 27.5694 44.278 30.1694 43.228 32.6027C42.178 35.0361 40.7446 37.1527 38.928 38.9527C37.1113 40.7527 34.9863 42.1777 32.553 43.2277C30.1196 44.2777 27.5363 44.8027 24.803 44.8027C22.0363 44.8027 19.4363 44.2777 17.003 43.2277C14.5696 42.1777 12.453 40.7527 10.653 38.9527C8.85298 37.1527 7.42798 35.0361 6.37798 32.6027C5.32798 30.1694 4.80298 27.5694 4.80298 24.8027C4.80298 22.0694 5.32798 19.4861 6.37798 17.0527C7.42798 14.6194 8.85298 12.4944 10.653 10.6777C12.453 8.86107 14.5696 7.42774 17.003 6.37774C19.4363 5.32774 22.0363 4.80274 24.803 4.80274Z" fill="#FF0004"/>
</g>
</svg>
