<svg width="122" height="122" viewBox="0 0 122 122" fill="none" xmlns="http://www.w3.org/2000/svg">
<g clip-path="url(#clip0_437_51)">
<path d="M117.372 49C112.37 49.1113 109.374 55.3451 109 64H122V51.5325C121.759 51.1707 121.492 50.8367 121.224 50.5584C120.208 49.5566 118.924 49.0278 117.372 49Z" fill="#FF0004"/>
<path d="M108.033 66.0279C107.496 75.5442 113.49 83.414 121.35 83.9721C121.576 83.9721 121.774 83.9721 122 84V66H108.033V66.0279Z" fill="#FF0004"/>
<path d="M116.795 93.9344C104.372 93.9344 97.3482 83.5812 97.0683 70.6257C97.0683 69.8142 97.0684 69.0028 97.0963 68.2193C97.0963 68.0514 97.0963 67.8835 97.0963 67.7436C97.0963 67.5757 97.0963 67.4078 97.1243 67.2399C97.572 61.5037 99.4188 56.411 102.469 52.6615C104.372 50.311 106.638 48.5482 109.212 47.345C111.479 46.1977 114.641 45.5821 117.243 45.5821H117.355C118.95 45.5821 120.517 45.75 122 46.0858V20.0628C122 8.98211 113.018 0 101.937 0H20.0628C8.98211 0 0 8.98211 0 20.0628V101.937C0 113.018 8.98211 122 20.0628 122H101.937C113.018 122 122 113.018 122 101.937V93.2908C120.405 93.7385 118.642 93.9904 116.767 93.9904L116.795 93.9344ZM97.656 92.6193H73.8995V91.9197H73.9835C77.0615 91.1922 78.7683 90.1849 79.0761 86.939V38.6986L56.1872 92.5073H54.928L32.6826 40.1537V85.7358C32.6826 89.8771 34.4174 91.0243 37.8032 91.7798H37.8872V92.5073H24.2601V91.8078H24.344C27.7578 91.0243 29.4927 89.8771 29.4927 85.7358V37.3555C29.4927 33.2142 27.7578 32.067 24.372 31.3115H24.2881V30.5839H44.3789L61.6995 71.2972L79.0202 30.5839H97.6839V31.2835H97.6C94.1862 32.067 92.4794 33.2142 92.4794 37.3555V86.939C92.7872 90.2128 94.55 91.2202 97.628 91.9197H97.7119V92.6472L97.656 92.6193Z" fill="#FF0004"/>
</g>
<defs>
<clipPath id="clip0_437_51">
<rect width="122" height="122" fill="white"/>
</clipPath>
</defs>
</svg>
